# xmcd
#
# Track frame offsets:
#	150
#	19912
#	44076
#	60372
#	79366
#	98066
#	120473
#	133508
#	153315
#	173057
#	189712
#
# Disc length: 2833 seconds
#
# Revision: 0
# Processed by: cddbd v1.5.1PL0 Copyright (c) Steve Scherf et al.
# Submitted via: dBpowerAMP V4.0
#
DISCID=8d0b0f0b
DTITLE=Various Artist - aric claptin hits
DYEAR=1900
DGENRE=
TTITLE0=dont speak - 
TTITLE1=anather day in paridice - 
TTITLE2=fells so right - 
TTITLE3=stranger in my house - 
TTITLE4=dont take the girl - 
TTITLE5=pitchure - 
TTITLE6=after midnight - 
TTITLE7=i shot the sherif - 
TTITLE8=noching on heavens door - 
TTITLE9=you look wounderfull tonight - 
TTITLE10=dont say good by - aric claptin
EXTD=picture
EXTT0=
EXTT1=
EXTT2=
EXTT3=
EXTT4=
EXTT5=
EXTT6=
EXTT7=
EXTT8=
EXTT9=
EXTT10=
PLAYORDER=
